<svg width="319" height="22" viewBox="0 0 319 22" fill="none" xmlns="http://www.w3.org/2000/svg">
<path d="M10.7801 8.338C10.7801 8.92467 10.6994 9.47467 10.5381 9.988H14.2121V7.062H10.6481C10.7361 7.47267 10.7801 7.898 10.7801 8.338ZM9.32811 12.056C9.29878 12.0853 9.27678 12.1147 9.26211 12.144C8.23545 13.1853 6.94478 13.706 5.39011 13.706C3.82078 13.706 2.53011 13.1853 1.51811 12.144C0.506113 11.1027 0.00011332 9.834 0.00011332 8.338C0.00011332 6.87134 0.506113 5.61734 1.51811 4.576C2.53011 3.52 3.82078 2.992 5.39011 2.992C6.94478 2.992 8.23545 3.51267 9.26211 4.554C9.39411 4.70067 9.51878 4.84734 9.63611 4.994H14.2121V1.3113e-06H16.5881V20.394H14.2121V12.056H9.32811ZM8.36011 8.338C8.36011 7.47267 8.07411 6.71 7.50211 6.05C6.94478 5.37534 6.24078 5.038 5.39011 5.038C4.53945 5.038 3.82811 5.37534 3.25611 6.05C2.69878 6.71 2.42011 7.47267 2.42011 8.338C2.42011 9.23267 2.69878 10.01 3.25611 10.67C3.81345 11.33 4.52478 11.66 5.39011 11.66C6.24078 11.66 6.94478 11.33 7.50211 10.67C8.07411 10.01 8.36011 9.23267 8.36011 8.338ZM34.2378 12.1H22.9078V1.98H25.3718V10.032H34.2378V12.1ZM18.7718 15.686H38.0878V17.776H18.7718V15.686ZM50.2624 9.922H39.7464V1.1H42.1664V7.854H50.2624V9.922ZM57.9624 6.82H54.5744V11.308H52.1764V1.3113e-06H54.5744V4.642H57.9624V6.82ZM54.9264 21.164H43.6404V15.378H51.9564V13.97H43.5524V11.902H54.3544V17.424H46.0604V19.096H54.9264V21.164ZM62.7859 4.246C62.7859 3.058 63.2992 2.06067 64.3259 1.254C65.3672 0.447335 66.6505 0.0440021 68.1759 0.0440021C69.7159 0.0440021 71.0065 0.447335 72.0479 1.254C73.0892 2.06067 73.6099 3.058 73.6099 4.246C73.6099 5.434 73.0892 6.43134 72.0479 7.238C71.0065 8.04467 69.7159 8.448 68.1759 8.448C66.6505 8.448 65.3672 8.04467 64.3259 7.238C63.2992 6.43134 62.7859 5.434 62.7859 4.246ZM65.2279 4.246C65.2279 4.83267 65.4919 5.33134 66.0199 5.742C66.5625 6.15267 67.2812 6.358 68.1759 6.358C69.0852 6.358 69.8112 6.15267 70.3539 5.742C70.8965 5.33134 71.1679 4.83267 71.1679 4.246C71.1679 3.65934 70.8965 3.16067 70.3539 2.75C69.8112 2.33933 69.0852 2.134 68.1759 2.134C67.2812 2.134 66.5625 2.33933 66.0199 2.75C65.4919 3.16067 65.2279 3.65934 65.2279 4.246ZM58.5179 9.218H77.8339V11.286H58.5179V9.218ZM74.1159 21.164H62.6759V15.774H71.1679V14.586H62.5439V12.562H73.6099V17.776H65.1179V19.118H74.1159V21.164ZM95.4662 3.168H91.4622C90.1422 3.168 88.9249 2.85267 87.8102 2.222L88.5362 0.506001C89.8855 0.902002 90.9635 1.1 91.7702 1.1H95.4662V3.168ZM97.9302 6.05H92.6502C91.6235 6.16734 90.9195 6.446 90.5382 6.886C89.9809 7.502 89.7022 8.15467 89.7022 8.844C89.7022 9.47467 89.9295 9.97334 90.3842 10.34C90.8389 10.7067 91.3595 10.89 91.9462 10.89C92.4449 10.89 92.9142 10.714 93.3542 10.362C93.8089 9.99534 94.0362 9.49667 94.0362 8.866C94.0362 8.36734 93.7429 7.88334 93.1562 7.414L94.8942 6.204C95.9062 6.952 96.4122 7.82467 96.4122 8.822C96.4122 10.0393 95.9575 11.0367 95.0482 11.814C94.1389 12.5767 93.1122 12.958 91.9682 12.958C90.6775 12.958 89.5775 12.562 88.6682 11.77C87.7589 10.978 87.3042 9.99534 87.3042 8.822C87.3042 7.83934 87.6635 6.91534 88.3822 6.05H85.9182V4.092H97.9302V6.05ZM104.97 7.942H101.582V13.2H99.1842V1.3113e-06H101.582V5.742H104.97V7.942ZM101.362 21.054H90.6482V13.816H101.362V21.054ZM98.9862 19.008V15.862H93.0242V19.008H98.9862ZM116.768 2.706C116.768 3.43934 116.746 4.026 116.702 4.466C116.628 5.50734 116.482 6.512 116.262 7.48H118.374V0.440002H120.64V19.052H118.374V9.57H115.646C114.912 11.7113 113.798 13.684 112.302 15.488L110.322 14.322C112.742 11.4033 114.054 8.22067 114.26 4.774H111.554C111.114 8.646 109.654 11.9313 107.176 14.63L105.24 13.508C107.792 10.6627 109.104 7.75134 109.178 4.774H106.252V2.706H116.768ZM121.938 20.394V1.3113e-06H124.248V20.394H121.938ZM135.964 2.948H131.96C130.64 2.948 129.423 2.64 128.308 2.024L129.034 0.352002C130.384 0.733335 131.462 0.924001 132.268 0.924001H135.964V2.948ZM138.428 5.61H132.884C132.048 5.698 131.454 5.918 131.102 6.27C130.516 6.82734 130.222 7.44334 130.222 8.118C130.222 8.61667 130.428 9.04934 130.838 9.416C131.264 9.768 131.799 9.944 132.444 9.944C132.987 9.944 133.464 9.768 133.874 9.416C134.3 9.064 134.512 8.63867 134.512 8.14C134.512 7.62667 134.285 7.216 133.83 6.908L135.48 5.742C136.434 6.402 136.91 7.194 136.91 8.118C136.91 9.18867 136.463 10.098 135.568 10.846C134.674 11.5793 133.64 11.946 132.466 11.946C131.117 11.946 130.002 11.5647 129.122 10.802C128.257 10.0247 127.824 9.13 127.824 8.118C127.824 7.194 128.154 6.358 128.814 5.61H126.416V3.652H138.428V5.61ZM145.468 7.436H142.08V12.012H139.682V1.3113e-06H142.08V5.214H145.468V7.436ZM142.432 21.164H131.146V15.84H139.462V14.74H131.058V12.716H141.86V17.842H133.566V19.14H142.432V21.164ZM160.083 7.656L165.275 13.354L163.559 14.806L159.137 9.9C158.184 11.7333 156.798 13.4347 154.979 15.004L153.285 13.53C156.365 10.846 158.052 7.68534 158.345 4.048V2.134H160.743V3.366C160.729 4.862 160.509 6.292 160.083 7.656ZM172.755 9.724H169.279V20.394H166.881V1.3113e-06H169.279V7.546H172.755V9.724ZM185.191 11.594H174.279V5.412H180.813V3.388H174.191V1.32H183.211V7.458H176.677V9.526H185.191V11.594ZM192.605 7.524H189.217V12.936H186.819V1.3113e-06H189.217V5.324H192.605V7.524ZM188.997 21.054H178.283V13.552H188.997V21.054ZM186.621 19.008V15.598H180.659V19.008H186.621ZM197.428 4.246C197.428 3.058 197.942 2.06067 198.968 1.254C200.01 0.447335 201.293 0.0440021 202.818 0.0440021C204.358 0.0440021 205.649 0.447335 206.69 1.254C207.732 2.06067 208.252 3.058 208.252 4.246C208.252 5.434 207.732 6.43134 206.69 7.238C205.649 8.04467 204.358 8.448 202.818 8.448C201.293 8.448 200.01 8.04467 198.968 7.238C197.942 6.43134 197.428 5.434 197.428 4.246ZM199.87 4.246C199.87 4.83267 200.134 5.33134 200.662 5.742C201.205 6.15267 201.924 6.358 202.818 6.358C203.728 6.358 204.454 6.15267 204.996 5.742C205.539 5.33134 205.81 4.83267 205.81 4.246C205.81 3.65934 205.539 3.16067 204.996 2.75C204.454 2.33933 203.728 2.134 202.818 2.134C201.924 2.134 201.205 2.33933 200.662 2.75C200.134 3.16067 199.87 3.65934 199.87 4.246ZM193.16 9.218H212.476V11.286H193.16V9.218ZM208.758 21.164H197.318V15.774H205.81V14.586H197.186V12.562H208.252V17.776H199.76V19.118H208.758V21.164ZM225.731 8.558C226.523 8.558 227.168 8.30134 227.667 7.788C228.165 7.26 228.415 6.61467 228.415 5.852C228.415 5.08934 228.165 4.45134 227.667 3.938C227.168 3.41 226.523 3.146 225.731 3.146C224.953 3.146 224.315 3.41 223.817 3.938C223.333 4.45134 223.091 5.08934 223.091 5.852C223.091 6.61467 223.333 7.26 223.817 7.788C224.315 8.30134 224.953 8.558 225.731 8.558ZM220.671 5.852C220.671 4.51734 221.147 3.39534 222.101 2.486C223.069 1.562 224.279 1.1 225.731 1.1C227.197 1.1 228.415 1.562 229.383 2.486C230.351 3.39534 230.835 4.51734 230.835 5.852C230.835 7.18667 230.351 8.316 229.383 9.24C228.415 10.1493 227.197 10.604 225.731 10.604C224.279 10.604 223.069 10.1493 222.101 9.24C221.147 8.316 220.671 7.18667 220.671 5.852ZM239.613 6.82H236.225V11.308H233.827V1.3113e-06H236.225V4.642H239.613V6.82ZM236.577 21.164H225.291V15.378H233.607V13.97H225.203V11.902H236.005V17.424H227.711V19.096H236.577V21.164ZM252.158 14.916H241.224V7.612H247.736V4.554H241.136V2.486H250.134V9.68H243.622V12.848H252.158V14.916ZM256.976 20.394H254.6V11.748H250.992V9.68H254.6V7.15H250.992V5.082H254.6V1.3113e-06H256.976V20.394ZM273.394 2.794C272.91 3.87934 272.191 4.89134 271.238 5.83L276.21 8.69L274.934 10.45L269.478 7.304C267.733 8.536 265.496 9.60667 262.768 10.516L261.382 8.756C266.134 7.14267 269.075 5.41934 270.204 3.586H262.9V1.518H273.834C273.731 1.958 273.585 2.38334 273.394 2.794ZM278.498 13.816H270.05V20.834H267.586V13.816H259.182V11.726H278.498V13.816ZM285.371 7.788L289.639 13.53L287.791 14.85L284.425 10.208C283.559 11.968 282.327 13.574 280.729 15.026L279.035 13.64C281.924 10.824 283.449 7.62667 283.611 4.048V2.134H285.987V3.366C285.972 4.92067 285.767 6.39467 285.371 7.788ZM296.943 20.394H294.611V1.3113e-06H296.943V20.394ZM287.197 6.512H290.563V0.440002H292.873V19.074H290.563V8.58H287.197V6.512ZM314.807 7.084C314.807 8.536 314.228 9.76067 313.069 10.758C311.925 11.7407 310.495 12.232 308.779 12.232C306.99 12.232 305.545 11.7407 304.445 10.758C303.345 9.76067 302.795 8.536 302.795 7.084C302.795 5.69067 303.345 4.488 304.445 3.476C305.545 2.44934 306.99 1.936 308.779 1.936C310.495 1.936 311.925 2.44934 313.069 3.476C314.228 4.488 314.807 5.69067 314.807 7.084ZM312.365 7.084C312.365 6.26267 312.028 5.55134 311.353 4.95C310.679 4.334 309.821 4.026 308.779 4.026C307.694 4.026 306.829 4.334 306.183 4.95C305.553 5.55134 305.237 6.26267 305.237 7.084C305.237 7.964 305.553 8.69734 306.183 9.284C306.829 9.856 307.694 10.142 308.779 10.142C309.821 10.142 310.679 9.856 311.353 9.284C312.028 8.712 312.365 7.97867 312.365 7.084ZM318.437 17.952H299.121V15.862H303.851V12.188H306.271V15.862H311.265V12.188H313.707V15.862H318.437V17.952Z" fill="#979EA1"/>
</svg>
