<svg width="295" height="123" viewBox="0 0 295 123" fill="none" xmlns="http://www.w3.org/2000/svg">
<path d="M113.264 21.704C113.264 22.2907 113.183 22.8407 113.022 23.354H116.696V20.428H113.132C113.22 20.8387 113.264 21.264 113.264 21.704ZM111.812 25.422C111.783 25.4513 111.761 25.4807 111.746 25.51C110.719 26.5513 109.429 27.072 107.874 27.072C106.305 27.072 105.014 26.5513 104.002 25.51C102.99 24.4687 102.484 23.2 102.484 21.704C102.484 20.2373 102.99 18.9833 104.002 17.942C105.014 16.886 106.305 16.358 107.874 16.358C109.429 16.358 110.719 16.8787 111.746 17.92C111.878 18.0667 112.003 18.2133 112.12 18.36H116.696V13.366H119.072V33.76H116.696V25.422H111.812ZM110.844 21.704C110.844 20.8387 110.558 20.076 109.986 19.416C109.429 18.7413 108.725 18.404 107.874 18.404C107.023 18.404 106.312 18.7413 105.74 19.416C105.183 20.076 104.904 20.8387 104.904 21.704C104.904 22.5987 105.183 23.376 105.74 24.036C106.297 24.696 107.009 25.026 107.874 25.026C108.725 25.026 109.429 24.696 109.986 24.036C110.558 23.376 110.844 22.5987 110.844 21.704ZM136.722 25.466H125.392V15.346H127.856V23.398H136.722V25.466ZM121.256 29.052H140.572V31.142H121.256V29.052ZM152.746 23.288H142.23V14.466H144.65V21.22H152.746V23.288ZM160.446 20.186H157.058V24.674H154.66V13.366H157.058V18.008H160.446V20.186ZM157.41 34.53H146.124V28.744H154.44V27.336H146.036V25.268H156.838V30.79H148.544V32.462H157.41V34.53Z" fill="#3E8FF3"/>
<path d="M161 13V0.0123544C162.317 0.012354 167.255 -0.637023 167.255 7.48024C170.548 7.15555 173.73 10.186 172.852 13H161Z" fill="#FFD86D"/>
<path d="M184.77 22.704C184.77 24.2587 184.227 25.5567 183.142 26.598C182.071 27.6247 180.773 28.1307 179.248 28.116C177.708 28.1013 176.41 27.588 175.354 26.576C174.298 25.5493 173.77 24.2587 173.77 22.704C173.77 21.1787 174.298 19.8953 175.354 18.854C176.41 17.8127 177.708 17.292 179.248 17.292C180.773 17.292 182.071 17.8127 183.142 18.854C184.227 19.8953 184.77 21.1787 184.77 22.704ZM182.35 22.704C182.35 21.7507 182.042 20.9513 181.426 20.306C180.825 19.646 180.099 19.3233 179.248 19.338C178.383 19.3527 177.657 19.6827 177.07 20.328C176.483 20.9587 176.19 21.7507 176.19 22.704C176.19 23.6867 176.483 24.4933 177.07 25.124C177.657 25.7547 178.383 26.07 179.248 26.07C180.099 26.07 180.825 25.7547 181.426 25.124C182.042 24.4933 182.35 23.6867 182.35 22.704ZM189.764 34.76H187.366V14.366H189.764V34.76Z" fill="#979EA1"/>
<path d="M4.488 63.096C4.488 61.8933 4.97933 60.852 5.962 59.972C6.94467 59.0773 8.25733 58.63 9.9 58.63C11.5573 58.63 12.8773 59.0773 13.86 59.972C14.8573 60.852 15.356 61.8933 15.356 63.096C15.356 64.2987 14.8647 65.34 13.882 66.22C13.1487 66.8653 12.232 67.276 11.132 67.452V68.948H19.558V71.038H0.242V68.948H8.668V67.474C7.58267 67.3127 6.68067 66.902 5.962 66.242C4.97933 65.3473 4.488 64.2987 4.488 63.096ZM6.93 63.096C6.93 63.7267 7.18667 64.284 7.7 64.768C8.21333 65.2373 8.94667 65.472 9.9 65.472C10.868 65.472 11.6087 65.2373 12.122 64.768C12.65 64.284 12.914 63.7267 12.914 63.096C12.914 62.4653 12.65 61.9153 12.122 61.446C11.6087 60.962 10.868 60.72 9.9 60.72C8.94667 60.72 8.21333 60.962 7.7 61.446C7.18667 61.9153 6.93 62.4653 6.93 63.096ZM15.466 79.728H13.024V74.624H4.158V72.556H15.466V79.728ZM31.1166 59.686C31.0873 60.3753 30.9406 61.05 30.6766 61.71L36.7486 66.154L35.2966 67.804L29.5766 63.602C28.4033 65.142 26.5699 66.6453 24.0766 68.112L22.5586 66.506C26.4453 64.1593 28.4839 61.8933 28.6746 59.708V58.806H31.1166V59.686ZM39.3666 71.06H31.3806V75.24H28.9166V71.06H20.0506V68.97H39.3666V71.06ZM35.8466 79.31H24.2526V73.062H26.6946V77.242H35.8466V79.31ZM51.6292 69.168H41.0252V59.752H43.4452V67.1H51.6292V69.168ZM53.9612 70.796V58.366H56.3592V70.796H53.9612ZM56.1392 79.42H45.4252V71.456H56.1392V79.42ZM53.7632 77.374V73.502H47.8012V77.374H53.7632ZM65.2166 67.782C65.9939 67.782 66.6466 67.518 67.1746 66.99C67.7173 66.4473 67.9886 65.7947 67.9886 65.032C67.9886 64.2693 67.7173 63.624 67.1746 63.096C66.6466 62.5533 65.9939 62.282 65.2166 62.282C64.4539 62.282 63.8086 62.5533 63.2806 63.096C62.7526 63.624 62.4886 64.2693 62.4886 65.032C62.4886 65.7947 62.7526 66.4473 63.2806 66.99C63.8086 67.518 64.4539 67.782 65.2166 67.782ZM60.0686 65.032C60.0686 63.6973 60.5599 62.568 61.5426 61.644C62.5253 60.7053 63.7499 60.236 65.2166 60.236C66.6979 60.236 67.9299 60.7053 68.9126 61.644C69.9099 62.568 70.4086 63.6973 70.4086 65.032C70.4086 66.3667 69.9099 67.5033 68.9126 68.442C67.9299 69.366 66.6979 69.828 65.2166 69.828C63.7499 69.828 62.5253 69.366 61.5426 68.442C60.5599 67.5033 60.0686 66.3667 60.0686 65.032ZM75.6666 78.76H73.2686V58.366H75.6666V78.76ZM72.6746 73.524C71.3693 73.8027 70.0199 73.964 68.6266 74.008C67.2333 74.052 66.0306 74.074 65.0186 74.074H58.7706V72.006H65.0846C65.9353 72.006 67.0573 71.984 68.4506 71.94C69.8439 71.896 71.2519 71.7347 72.6746 71.456V73.524ZM96.9408 70.026H93.5968V72.248C94.0368 72.2333 94.5134 72.2187 95.0268 72.204C96.4201 72.16 97.8281 71.9987 99.2508 71.72V73.788C97.9454 74.0667 96.5961 74.228 95.2028 74.272C93.8094 74.316 92.6068 74.338 91.5948 74.338H85.3468V72.27H91.1548V70.026H87.0188V60.632H96.8088V62.7H89.3508V64.306H96.6768V66.33H89.3508V67.98H96.9408V70.026ZM102.243 78.76H99.8448V58.366H102.243V78.76ZM115.309 64.636H110.777C109.853 64.7827 109.208 65.054 108.841 65.45C108.299 66.0367 108.027 66.6527 108.027 67.298C108.027 67.8993 108.225 68.4273 108.621 68.882C109.017 69.322 109.509 69.542 110.095 69.542C110.77 69.542 111.313 69.322 111.723 68.882C112.149 68.442 112.361 67.9213 112.361 67.32C112.361 67.144 112.31 66.9387 112.207 66.704C112.105 66.4547 111.914 66.2053 111.635 65.956L113.439 64.812C113.923 65.2813 114.246 65.7067 114.407 66.088C114.583 66.4547 114.671 66.8507 114.671 67.276C114.671 68.4347 114.239 69.432 113.373 70.268C112.508 71.104 111.415 71.522 110.095 71.522C108.819 71.522 107.763 71.0967 106.927 70.246C106.091 69.3807 105.673 68.3907 105.673 67.276C105.673 66.352 106.033 65.472 106.751 64.636H104.551V62.678H115.309V64.636ZM113.527 61.754H109.765C108.504 61.754 107.309 61.4387 106.179 60.808L106.905 59.092C108.269 59.488 109.325 59.686 110.073 59.686H113.527V61.754ZM120.061 71.61V65.89H118.279V70.686H115.969V58.806H118.279V63.822H120.061V58.366H122.393V71.61H120.061ZM121.645 75.504C121.645 76.648 121.183 77.6527 120.259 78.518C119.35 79.3833 118.111 79.816 116.541 79.816C114.987 79.816 113.755 79.3833 112.845 78.518C111.936 77.6527 111.481 76.648 111.481 75.504C111.481 74.3747 111.936 73.3773 112.845 72.512C113.755 71.632 114.987 71.192 116.541 71.192C118.096 71.192 119.335 71.632 120.259 72.512C121.183 73.3773 121.645 74.3747 121.645 75.504ZM119.225 75.504C119.225 74.9467 118.998 74.4333 118.543 73.964C118.089 73.48 117.421 73.238 116.541 73.238C115.661 73.238 115.001 73.48 114.561 73.964C114.121 74.4333 113.901 74.9467 113.901 75.504C113.901 76.076 114.121 76.5893 114.561 77.044C115.001 77.5133 115.661 77.748 116.541 77.748C117.421 77.748 118.089 77.506 118.543 77.022C118.998 76.5527 119.225 76.0467 119.225 75.504ZM131.502 63.932L136.342 68.288L134.78 69.85L130.6 65.934C129.691 67.518 128.327 69.0067 126.508 70.4L124.814 68.992C127.894 66.5133 129.493 63.866 129.61 61.05V59.466H131.986V60.654C132.015 61.7833 131.854 62.876 131.502 63.932ZM138.982 71.192V64.9H134.318V62.832H138.982V58.366H141.38V71.192H138.982ZM141.182 75.328C141.182 76.5453 140.705 77.594 139.752 78.474C138.799 79.3687 137.515 79.816 135.902 79.816C134.318 79.816 133.049 79.3687 132.096 78.474C131.143 77.594 130.666 76.5453 130.666 75.328C130.666 74.1107 131.143 73.062 132.096 72.182C133.049 71.2873 134.318 70.84 135.902 70.84C137.501 70.84 138.777 71.2873 139.73 72.182C140.698 73.062 141.182 74.1107 141.182 75.328ZM138.762 75.328C138.762 74.6827 138.513 74.118 138.014 73.634C137.53 73.15 136.826 72.908 135.902 72.908C134.993 72.908 134.296 73.15 133.812 73.634C133.328 74.118 133.086 74.6827 133.086 75.328C133.086 75.9733 133.328 76.538 133.812 77.022C134.296 77.506 134.993 77.748 135.902 77.748C136.826 77.748 137.53 77.506 138.014 77.022C138.513 76.538 138.762 75.9733 138.762 75.328ZM162.925 68.838H159.141V71.984C159.625 71.9693 160.161 71.9547 160.747 71.94C162.141 71.896 163.549 71.7347 164.971 71.456V73.524C163.666 73.8027 162.317 73.964 160.923 74.008C159.53 74.052 158.327 74.074 157.315 74.074H151.067V72.006H156.721V68.838H152.739V60.72H155.159V66.77H162.925V68.838ZM167.963 78.76H165.565V58.366H167.963V78.76ZM178.544 64.174L182.812 67.298L181.184 68.926L177.114 65.802C175.75 67.1367 174.019 68.3833 171.922 69.542L170.338 67.958C173.887 66.0367 176.293 63.9613 177.554 61.732H171.636V59.686H180.524C180.392 60.7127 180.091 61.644 179.622 62.48C179.314 63.052 178.955 63.6167 178.544 64.174ZM184.264 69.652V58.366H186.662V69.652H184.264ZM187.014 79.53H175.728V73.744H184.044V72.336H175.64V70.268H186.442V75.79H178.126V77.462H187.014V79.53ZM199.193 60.984H194.705C194.177 60.984 193.649 60.9107 193.121 60.764C192.593 60.6027 192.065 60.368 191.537 60.06L192.241 58.366C192.916 58.6153 193.422 58.7767 193.759 58.85C194.111 58.9233 194.5 58.96 194.925 58.96H199.193V60.984ZM201.723 63.756H195.497C195.057 63.8733 194.705 64.0347 194.441 64.24C193.855 64.724 193.561 65.2373 193.561 65.78C193.561 66.352 193.745 66.7847 194.111 67.078C194.493 67.3713 194.984 67.518 195.585 67.518C196.216 67.518 196.722 67.3713 197.103 67.078C197.485 66.7847 197.675 66.3593 197.675 65.802C197.675 65.6553 197.646 65.5087 197.587 65.362C197.529 65.2153 197.419 65.0613 197.257 64.9L199.105 63.822C199.384 64.1007 199.604 64.4013 199.765 64.724C199.927 65.0467 200.007 65.3987 200.007 65.78C200.007 66.924 199.582 67.8187 198.731 68.464C198.159 68.904 197.507 69.1973 196.773 69.344V70.554C197.272 70.554 197.822 70.5467 198.423 70.532C199.743 70.5027 201.115 70.3487 202.537 70.07V72.138C201.232 72.4167 199.912 72.5707 198.577 72.6C197.257 72.6293 196.091 72.644 195.079 72.644H189.073V70.576H194.375V69.344C193.671 69.1827 193.041 68.8893 192.483 68.464C191.633 67.8187 191.207 66.924 191.207 65.78C191.207 65.1933 191.405 64.6507 191.801 64.152C191.904 64.02 192.021 63.888 192.153 63.756H189.491V61.754H201.723V63.756ZM208.873 67.518H205.397V75.284H202.999V58.366H205.397V65.45H208.873V67.518ZM205.573 79.31H194.045V73.634H196.421V77.198H205.573V79.31ZM226.955 61.094C226.251 66.0367 223.692 70.2973 219.277 73.876L217.517 72.402C221.155 69.3953 223.384 66.3153 224.205 63.162H217.715V61.094H226.955ZM235.909 67.716H232.433V78.76H230.035V58.366H232.433V65.538H235.909V67.716ZM251.689 66.308H240.557V58.982H243.021V64.24H251.689V66.308ZM255.693 70.224H236.377V68.134H255.693V70.224ZM240.645 75.504C240.645 74.3013 241.151 73.282 242.163 72.446C243.175 71.5953 244.465 71.17 246.035 71.17C247.604 71.17 248.902 71.5953 249.929 72.446C250.955 73.282 251.469 74.3013 251.469 75.504C251.469 76.7213 250.955 77.748 249.929 78.584C248.902 79.42 247.604 79.838 246.035 79.838C244.465 79.838 243.175 79.42 242.163 78.584C241.151 77.748 240.645 76.7213 240.645 75.504ZM243.087 75.504C243.087 76.1347 243.351 76.6627 243.879 77.088C244.421 77.528 245.14 77.748 246.035 77.748C246.944 77.748 247.67 77.528 248.213 77.088C248.755 76.648 249.027 76.12 249.027 75.504C249.027 74.888 248.755 74.36 248.213 73.92C247.67 73.48 246.944 73.26 246.035 73.26C245.14 73.26 244.421 73.48 243.879 73.92C243.351 74.36 243.087 74.888 243.087 75.504ZM263.115 63.932L267.955 68.288L266.393 69.85L262.213 65.934C261.304 67.518 259.94 69.0067 258.121 70.4L256.427 68.992C259.507 66.5133 261.106 63.866 261.223 61.05V59.466H263.599V60.654C263.629 61.7833 263.467 62.876 263.115 63.932ZM270.595 71.192V64.9H265.931V62.832H270.595V58.366H272.993V71.192H270.595ZM272.795 75.328C272.795 76.5453 272.319 77.594 271.365 78.474C270.412 79.3687 269.129 79.816 267.515 79.816C265.931 79.816 264.663 79.3687 263.709 78.474C262.756 77.594 262.279 76.5453 262.279 75.328C262.279 74.1107 262.756 73.062 263.709 72.182C264.663 71.2873 265.931 70.84 267.515 70.84C269.114 70.84 270.39 71.2873 271.343 72.182C272.311 73.062 272.795 74.1107 272.795 75.328ZM270.375 75.328C270.375 74.6827 270.126 74.118 269.627 73.634C269.143 73.15 268.439 72.908 267.515 72.908C266.606 72.908 265.909 73.15 265.425 73.634C264.941 74.118 264.699 74.6827 264.699 75.328C264.699 75.9733 264.941 76.538 265.425 77.022C265.909 77.506 266.606 77.748 267.515 77.748C268.439 77.748 269.143 77.506 269.627 77.022C270.126 76.538 270.375 75.9733 270.375 75.328ZM279.467 62.612C279.467 61.424 279.98 60.4267 281.007 59.62C282.048 58.8133 283.332 58.41 284.857 58.41C286.397 58.41 287.688 58.8133 288.729 59.62C289.77 60.4267 290.291 61.424 290.291 62.612C290.291 63.8 289.77 64.7973 288.729 65.604C287.688 66.4107 286.397 66.814 284.857 66.814C283.332 66.814 282.048 66.4107 281.007 65.604C279.98 64.7973 279.467 63.8 279.467 62.612ZM281.909 62.612C281.909 63.1987 282.173 63.6973 282.701 64.108C283.244 64.5187 283.962 64.724 284.857 64.724C285.766 64.724 286.492 64.5187 287.035 64.108C287.578 63.6973 287.849 63.1987 287.849 62.612C287.849 62.0253 287.578 61.5267 287.035 61.116C286.492 60.7053 285.766 60.5 284.857 60.5C283.962 60.5 283.244 60.7053 282.701 61.116C282.173 61.5267 281.909 62.0253 281.909 62.612ZM275.199 67.584H294.515V69.652H275.199V67.584ZM290.797 79.53H279.357V74.14H287.849V72.952H279.225V70.928H290.291V76.142H281.799V77.484H290.797V79.53Z" fill="#979EA1"/>
<path d="M103.312 106.848H92.4V98.092H94.82V100.6H100.914V98.092H103.312V106.848ZM100.914 104.78V102.624H94.82V104.78H100.914ZM107.558 110.544H99.572V114.614H97.108V110.544H88.242V108.454H107.558V110.544ZM104.038 118.31H92.444V112.37H94.886V116.242H104.038V118.31ZM114.981 102.91L119.843 107.53L118.171 108.938L114.057 104.956C113.133 106.54 111.754 108.043 109.921 109.466L108.227 108.058C111.307 105.579 112.927 102.917 113.089 100.072V98.488H115.465V99.676C115.479 100.791 115.318 101.869 114.981 102.91ZM124.859 110.082H122.461V104.054H117.797V101.986H122.461V97.366H124.859V110.082ZM124.639 118.75H122.241V112.766H113.221V110.698H124.639V118.75ZM141.078 99.478C140.58 100.475 139.876 101.392 138.966 102.228L143.828 104.604L142.53 106.408L137.03 103.68C135.344 104.765 133.224 105.675 130.672 106.408L129.352 104.692C133.928 103.211 136.744 101.737 137.8 100.27H130.98V98.202H141.54C141.452 98.6567 141.298 99.082 141.078 99.478ZM135.49 110.478V108.894H127.064V106.804H146.38V108.894H137.954V110.478C138.937 110.639 139.81 111.006 140.572 111.578C141.628 112.385 142.156 113.397 142.156 114.614C142.156 115.831 141.628 116.836 140.572 117.628C139.516 118.435 138.233 118.838 136.722 118.838C135.226 118.838 133.95 118.435 132.894 117.628C131.853 116.836 131.332 115.831 131.332 114.614C131.332 113.397 131.86 112.385 132.916 111.578C133.65 111.021 134.508 110.654 135.49 110.478ZM133.774 114.614C133.774 115.23 134.046 115.736 134.588 116.132C135.146 116.543 135.857 116.748 136.722 116.748C137.602 116.748 138.321 116.543 138.878 116.132C139.436 115.736 139.714 115.23 139.714 114.614C139.714 113.998 139.436 113.492 138.878 113.096C138.321 112.685 137.602 112.48 136.722 112.48C135.857 112.48 135.146 112.685 134.588 113.096C134.046 113.492 133.774 113.998 133.774 114.614ZM158.401 105.704C158.401 107.259 157.858 108.557 156.773 109.598C155.702 110.625 154.404 111.131 152.879 111.116C151.339 111.101 150.041 110.588 148.985 109.576C147.929 108.549 147.401 107.259 147.401 105.704C147.401 104.179 147.929 102.895 148.985 101.854C150.041 100.813 151.339 100.292 152.879 100.292C154.404 100.292 155.702 100.813 156.773 101.854C157.858 102.895 158.401 104.179 158.401 105.704ZM155.981 105.704C155.981 104.751 155.673 103.951 155.057 103.306C154.456 102.646 153.73 102.323 152.879 102.338C152.014 102.353 151.288 102.683 150.701 103.328C150.114 103.959 149.821 104.751 149.821 105.704C149.821 106.687 150.114 107.493 150.701 108.124C151.288 108.755 152.014 109.07 152.879 109.07C153.73 109.07 154.456 108.755 155.057 108.124C155.673 107.493 155.981 106.687 155.981 105.704ZM163.395 117.76H160.997V97.366H163.395V117.76ZM175.838 106.672C175.662 107.816 175.186 108.791 174.408 109.598C173.411 110.625 172.201 111.138 170.778 111.138C169.37 111.138 168.168 110.625 167.17 109.598C166.173 108.571 165.674 107.273 165.674 105.704C165.674 104.135 166.166 102.837 167.148 101.81C168.146 100.783 169.356 100.27 170.778 100.27C172.216 100.27 173.433 100.783 174.43 101.81C175.178 102.587 175.64 103.519 175.816 104.604H177.73V97.806H180.04V116.44H177.73V106.672H175.838ZM173.506 105.704C173.506 104.707 173.242 103.893 172.714 103.262C172.186 102.631 171.541 102.316 170.778 102.316C170.03 102.316 169.392 102.631 168.864 103.262C168.336 103.893 168.072 104.707 168.072 105.704C168.072 106.701 168.336 107.515 168.864 108.146C169.392 108.777 170.03 109.092 170.778 109.092C171.526 109.092 172.164 108.777 172.692 108.146C173.235 107.515 173.506 106.701 173.506 105.704ZM183.956 117.76H181.624V97.366H183.956V117.76ZM201.811 104.45C201.811 105.902 201.231 107.127 200.073 108.124C198.929 109.107 197.499 109.598 195.783 109.598C193.993 109.598 192.549 109.107 191.449 108.124C190.349 107.127 189.799 105.902 189.799 104.45C189.799 103.057 190.349 101.854 191.449 100.842C192.549 99.8153 193.993 99.302 195.783 99.302C197.499 99.302 198.929 99.8153 200.073 100.842C201.231 101.854 201.811 103.057 201.811 104.45ZM199.369 104.45C199.369 103.629 199.031 102.917 198.357 102.316C197.682 101.7 196.824 101.392 195.783 101.392C194.697 101.392 193.832 101.7 193.187 102.316C192.556 102.917 192.241 103.629 192.241 104.45C192.241 105.33 192.556 106.063 193.187 106.65C193.832 107.222 194.697 107.508 195.783 107.508C196.824 107.508 197.682 107.222 198.357 106.65C199.031 106.078 199.369 105.345 199.369 104.45ZM205.441 115.318H186.125V113.228H190.855V109.554H193.275V113.228H198.269V109.554H200.711V113.228H205.441V115.318Z" fill="#979EA1"/>
</svg>
