<svg width="190" height="86" viewBox="0 0 190 86" fill="none" xmlns="http://www.w3.org/2000/svg">
<path d="M11.5941 11.66H8.25009V13.882C8.69009 13.8673 9.16675 13.8527 9.68009 13.838C11.0734 13.794 12.4814 13.6327 13.9041 13.354V15.422C12.5988 15.7007 11.2494 15.862 9.85609 15.906C8.46275 15.95 7.26009 15.972 6.24809 15.972H8.59722e-05V13.904H5.80809V11.66H1.67209V2.266H11.4621V4.334H4.00409V5.94H11.3301V7.964H4.00409V9.614H11.5941V11.66ZM16.8961 20.394H14.4981V1.3113e-06H16.8961V20.394ZM29.9625 6.27H25.4305C24.5065 6.41667 23.8612 6.688 23.4945 7.084C22.9519 7.67067 22.6805 8.28667 22.6805 8.932C22.6805 9.53334 22.8785 10.0613 23.2745 10.516C23.6705 10.956 24.1619 11.176 24.7485 11.176C25.4232 11.176 25.9659 10.956 26.3765 10.516C26.8019 10.076 27.0145 9.55534 27.0145 8.954C27.0145 8.778 26.9632 8.57267 26.8605 8.338C26.7579 8.08867 26.5672 7.83934 26.2885 7.59L28.0925 6.446C28.5765 6.91534 28.8992 7.34067 29.0605 7.722C29.2365 8.08867 29.3245 8.48467 29.3245 8.91C29.3245 10.0687 28.8919 11.066 28.0265 11.902C27.1612 12.738 26.0685 13.156 24.7485 13.156C23.4725 13.156 22.4165 12.7307 21.5805 11.88C20.7445 11.0147 20.3265 10.0247 20.3265 8.91C20.3265 7.986 20.6859 7.106 21.4045 6.27H19.2045V4.312H29.9625V6.27ZM28.1805 3.388H24.4185C23.1572 3.388 21.9619 3.07267 20.8325 2.442L21.5585 0.726002C22.9225 1.122 23.9785 1.32 24.7265 1.32H28.1805V3.388ZM34.7145 13.244V7.524H32.9325V12.32H30.6225V0.440002H32.9325V5.456H34.7145V1.3113e-06H37.0465V13.244H34.7145ZM36.2985 17.138C36.2985 18.282 35.8365 19.2867 34.9125 20.152C34.0032 21.0173 32.7639 21.45 31.1945 21.45C29.6399 21.45 28.4079 21.0173 27.4985 20.152C26.5892 19.2867 26.1345 18.282 26.1345 17.138C26.1345 16.0087 26.5892 15.0113 27.4985 14.146C28.4079 13.266 29.6399 12.826 31.1945 12.826C32.7492 12.826 33.9885 13.266 34.9125 14.146C35.8365 15.0113 36.2985 16.0087 36.2985 17.138ZM33.8785 17.138C33.8785 16.5807 33.6512 16.0673 33.1965 15.598C32.7419 15.114 32.0745 14.872 31.1945 14.872C30.3145 14.872 29.6545 15.114 29.2145 15.598C28.7745 16.0673 28.5545 16.5807 28.5545 17.138C28.5545 17.71 28.7745 18.2233 29.2145 18.678C29.6545 19.1473 30.3145 19.382 31.1945 19.382C32.0745 19.382 32.7419 19.14 33.1965 18.656C33.6512 18.1867 33.8785 17.6807 33.8785 17.138ZM46.1554 5.566L50.9954 9.922L49.4334 11.484L45.2534 7.568C44.3441 9.152 42.9801 10.6407 41.1614 12.034L39.4674 10.626C42.5474 8.14734 44.1461 5.5 44.2634 2.684V1.1H46.6394V2.288C46.6687 3.41734 46.5074 4.51 46.1554 5.566ZM53.6354 12.826V6.534H48.9714V4.466H53.6354V1.3113e-06H56.0334V12.826H53.6354ZM55.8354 16.962C55.8354 18.1793 55.3587 19.228 54.4054 20.108C53.4521 21.0027 52.1687 21.45 50.5554 21.45C48.9714 21.45 47.7027 21.0027 46.7494 20.108C45.7961 19.228 45.3194 18.1793 45.3194 16.962C45.3194 15.7447 45.7961 14.696 46.7494 13.816C47.7027 12.9213 48.9714 12.474 50.5554 12.474C52.1541 12.474 53.4301 12.9213 54.3834 13.816C55.3514 14.696 55.8354 15.7447 55.8354 16.962ZM53.4154 16.962C53.4154 16.3167 53.1661 15.752 52.6674 15.268C52.1834 14.784 51.4794 14.542 50.5554 14.542C49.6461 14.542 48.9494 14.784 48.4654 15.268C47.9814 15.752 47.7394 16.3167 47.7394 16.962C47.7394 17.6073 47.9814 18.172 48.4654 18.656C48.9494 19.14 49.6461 19.382 50.5554 19.382C51.4794 19.382 52.1834 19.14 52.6674 18.656C53.1661 18.172 53.4154 17.6073 53.4154 16.962ZM77.5788 10.472H73.7948V13.618C74.2788 13.6033 74.8141 13.5887 75.4008 13.574C76.7941 13.53 78.2021 13.3687 79.6248 13.09V15.158C78.3195 15.4367 76.9701 15.598 75.5768 15.642C74.1835 15.686 72.9808 15.708 71.9688 15.708H65.7208V13.64H71.3748V10.472H67.3928V2.354H69.8128V8.404H77.5788V10.472ZM82.6168 20.394H80.2188V1.3113e-06H82.6168V20.394ZM93.1972 5.808L97.4652 8.932L95.8372 10.56L91.7672 7.436C90.4032 8.77067 88.6726 10.0173 86.5752 11.176L84.9912 9.592C88.5406 7.67067 90.9459 5.59534 92.2072 3.366H86.2892V1.32H95.1772C95.0452 2.34667 94.7446 3.278 94.2752 4.114C93.9672 4.686 93.6079 5.25067 93.1972 5.808ZM98.9172 11.286V1.3113e-06H101.315V11.286H98.9172ZM101.667 21.164H90.3812V15.378H98.6972V13.97H90.2932V11.902H101.095V17.424H92.7792V19.096H101.667V21.164ZM113.847 2.618H109.359C108.831 2.618 108.303 2.54467 107.775 2.398C107.247 2.23667 106.719 2.002 106.191 1.694L106.895 1.3113e-06C107.569 0.249335 108.075 0.410668 108.413 0.484002C108.765 0.557335 109.153 0.594002 109.579 0.594002H113.847V2.618ZM116.377 5.39H110.151C109.711 5.50733 109.359 5.66867 109.095 5.874C108.508 6.358 108.215 6.87133 108.215 7.414C108.215 7.986 108.398 8.41867 108.765 8.712C109.146 9.00534 109.637 9.152 110.239 9.152C110.869 9.152 111.375 9.00534 111.757 8.712C112.138 8.41867 112.329 7.99334 112.329 7.436C112.329 7.28934 112.299 7.14267 112.241 6.996C112.182 6.84934 112.072 6.69534 111.911 6.534L113.759 5.456C114.037 5.73467 114.257 6.03534 114.419 6.358C114.58 6.68067 114.661 7.03267 114.661 7.414C114.661 8.558 114.235 9.45267 113.385 10.098C112.813 10.538 112.16 10.8313 111.427 10.978V12.188C111.925 12.188 112.475 12.1807 113.077 12.166C114.397 12.1367 115.768 11.9827 117.191 11.704V13.772C115.885 14.0507 114.565 14.2047 113.231 14.234C111.911 14.2633 110.745 14.278 109.733 14.278H103.727V12.21H109.029V10.978C108.325 10.8167 107.694 10.5233 107.137 10.098C106.286 9.45267 105.861 8.558 105.861 7.414C105.861 6.82734 106.059 6.28467 106.455 5.786C106.557 5.654 106.675 5.522 106.807 5.39H104.145V3.388H116.377V5.39ZM123.527 9.152H120.051V16.918H117.653V1.3113e-06H120.051V7.084H123.527V9.152ZM120.227 20.944H108.699V15.268H111.075V18.832H120.227V20.944ZM142.115 8.338C142.115 8.92467 142.034 9.47467 141.873 9.988H145.547V7.062H141.983C142.071 7.47267 142.115 7.898 142.115 8.338ZM140.663 12.056C140.633 12.0853 140.611 12.1147 140.597 12.144C139.57 13.1853 138.279 13.706 136.725 13.706C135.155 13.706 133.865 13.1853 132.853 12.144C131.841 11.1027 131.335 9.834 131.335 8.338C131.335 6.87134 131.841 5.61734 132.853 4.576C133.865 3.52 135.155 2.992 136.725 2.992C138.279 2.992 139.57 3.51267 140.597 4.554C140.729 4.70067 140.853 4.84734 140.971 4.994H145.547V1.3113e-06H147.923V20.394H145.547V12.056H140.663ZM139.695 8.338C139.695 7.47267 139.409 6.71 138.837 6.05C138.279 5.37534 137.575 5.038 136.725 5.038C135.874 5.038 135.163 5.37534 134.591 6.05C134.033 6.71 133.755 7.47267 133.755 8.338C133.755 9.23267 134.033 10.01 134.591 10.67C135.148 11.33 135.859 11.66 136.725 11.66C137.575 11.66 138.279 11.33 138.837 10.67C139.409 10.01 139.695 9.23267 139.695 8.338ZM165.286 10.076H154.22V0.880002H156.64V3.564H162.888V0.880002H165.286V10.076ZM162.888 8.008V5.632H156.64V8.008H162.888ZM169.422 13.97H160.974V20.834H158.51V13.97H150.106V11.88H169.422V13.97ZM185.183 8.8H174.051V3.674H182.323V2.552H173.985V0.572002H184.765V5.632H176.493V6.82H185.183V8.8ZM169.915 9.9H189.231V11.946H169.915V9.9ZM185.249 21.164H174.073V15.972H182.301V15.004H173.941V13.002H184.743V17.952H176.515V19.14H185.249V21.164ZM140.976 39.194C140.976 40.646 140.404 41.8633 139.26 42.846C138.13 43.814 136.708 44.298 134.992 44.298C133.202 44.298 131.765 43.814 130.68 42.846C129.594 41.8633 129.052 40.646 129.052 39.194C129.052 37.8007 129.594 36.6053 130.68 35.608C131.765 34.596 133.202 34.09 134.992 34.09C136.708 34.09 138.13 34.596 139.26 35.608C140.404 36.6053 140.976 37.8007 140.976 39.194ZM138.534 39.194C138.534 38.3727 138.204 37.6687 137.544 37.082C136.884 36.4807 136.033 36.18 134.992 36.18C133.906 36.18 133.048 36.4807 132.418 37.082C131.802 37.6687 131.494 38.3727 131.494 39.194C131.494 40.074 131.802 40.8 132.418 41.372C133.048 41.9293 133.906 42.208 134.992 42.208C136.033 42.208 136.884 41.9293 137.544 41.372C138.204 40.8147 138.534 40.0887 138.534 39.194ZM125.378 47.686H144.694V49.776H125.378V47.686ZM160.586 45.244H156.12V47.862H164.502V49.952H145.186V47.862H153.656V45.244H149.212V38.49H157.726V35.916H149.124V33.892H160.168V40.514H151.654V43.22H160.586V45.244ZM28.118 72.558C28.91 72.558 29.5553 72.3013 30.054 71.788C30.5526 71.26 30.802 70.6147 30.802 69.852C30.802 69.0893 30.5526 68.4513 30.054 67.938C29.5553 67.41 28.91 67.146 28.118 67.146C27.3406 67.146 26.7026 67.41 26.204 67.938C25.72 68.4513 25.478 69.0893 25.478 69.852C25.478 70.6147 25.72 71.26 26.204 71.788C26.7026 72.3013 27.3406 72.558 28.118 72.558ZM23.058 69.852C23.058 68.5173 23.5346 67.3953 24.488 66.486C25.456 65.562 26.666 65.1 28.118 65.1C29.5846 65.1 30.802 65.562 31.77 66.486C32.738 67.3953 33.222 68.5173 33.222 69.852C33.222 71.1867 32.738 72.316 31.77 73.24C30.802 74.1493 29.5846 74.604 28.118 74.604C26.666 74.604 25.456 74.1493 24.488 73.24C23.5346 72.316 23.058 71.1867 23.058 69.852ZM42 70.82H38.612V75.308H36.214V64H38.612V68.642H42V70.82ZM38.964 85.164H27.678V79.378H35.994V77.97H27.59V75.902H38.392V81.424H30.098V83.096H38.964V85.164ZM53.7975 72.338C53.7975 73.834 53.2841 75.1027 52.2575 76.144C51.2455 77.1853 49.9621 77.706 48.4075 77.706C46.8381 77.706 45.5475 77.1853 44.5355 76.144C43.5235 75.1027 43.0175 73.834 43.0175 72.338C43.0175 70.8713 43.5235 69.6173 44.5355 68.576C45.5475 67.52 46.8381 66.992 48.4075 66.992C49.9621 66.992 51.2455 67.52 52.2575 68.576C53.2841 69.6173 53.7975 70.8713 53.7975 72.338ZM51.3775 72.338C51.3775 71.4727 51.0915 70.71 50.5195 70.05C49.9621 69.3753 49.2581 69.038 48.4075 69.038C47.5568 69.038 46.8455 69.3753 46.2735 70.05C45.7161 70.71 45.4375 71.4727 45.4375 72.338C45.4375 73.2327 45.7161 74.01 46.2735 74.67C46.8308 75.33 47.5421 75.66 48.4075 75.66C49.2581 75.66 49.9621 75.33 50.5195 74.67C51.0915 74.01 51.3775 73.2327 51.3775 72.338ZM62.0255 73.284H58.6595V84.394H56.2615V64H58.6595V71.106H62.0255V73.284ZM77.563 72.25H73.383V73.79H81.809V75.858H62.493V73.79H70.919V72.25H66.651V64.44H69.071V66.64H75.165V64.44H77.563V72.25ZM75.165 70.226V68.62H69.071V70.226H75.165ZM78.091 85.164H66.651V80.082H75.143V79.18H66.519V77.178H77.585V82.062H69.093V83.14H78.091V85.164ZM100.497 65.892C100.453 66.4933 100.343 67.0727 100.167 67.63L106.415 72.36L104.919 74.01L99.1773 69.676C98.0333 71.392 96.156 72.9393 93.5453 74.318L92.0053 72.668C95.9653 70.424 97.982 68.136 98.0553 65.804V64.77H100.497V65.892ZM108.879 77.816H100.431V84.834H97.9673V77.816H89.5633V75.726H108.879V77.816ZM122.178 73.064C122.999 73.064 123.652 72.7853 124.136 72.228C124.634 71.6707 124.884 71.0253 124.884 70.292C124.884 69.5587 124.634 68.9133 124.136 68.356C123.652 67.7987 122.999 67.52 122.178 67.52C121.371 67.52 120.726 67.7987 120.242 68.356C119.758 68.9133 119.516 69.5587 119.516 70.292C119.516 71.0253 119.758 71.6707 120.242 72.228C120.726 72.7853 121.371 73.064 122.178 73.064ZM117.096 70.292C117.096 68.9867 117.572 67.8573 118.526 66.904C119.479 65.9507 120.696 65.474 122.178 65.474C123.674 65.474 124.898 65.9507 125.852 66.904C126.82 67.8573 127.304 68.9867 127.304 70.292C127.304 71.5973 126.82 72.7267 125.852 73.68C124.898 74.6333 123.674 75.11 122.178 75.11C120.696 75.11 119.479 74.6333 118.526 73.68C117.572 72.7267 117.096 71.5973 117.096 70.292ZM130.736 76.43V64H133.134V76.43H130.736ZM124.928 77.838C124.898 78.5273 124.774 79.1947 124.554 79.84L126.974 82.48C128.338 81.0867 129.012 79.5027 128.998 77.728V77.024H131.396V77.662C131.396 78.3953 131.3 79.1067 131.11 79.796L135.158 83.778L133.552 85.208L130.186 81.908C130.156 81.9667 130.127 82.018 130.098 82.062C129.218 83.426 128.118 84.5187 126.798 85.34L123.52 81.886C122.713 83.0593 121.554 84.174 120.044 85.23L118.482 83.712C121.166 81.952 122.515 79.9573 122.53 77.728V77.024H124.928V77.838ZM146.259 73.394C146.068 74.4353 145.592 75.352 144.829 76.144C143.802 77.1853 142.512 77.706 140.957 77.706C139.388 77.706 138.097 77.1853 137.085 76.144C136.073 75.1027 135.567 73.834 135.567 72.338C135.567 70.8713 136.073 69.6173 137.085 68.576C138.097 67.52 139.388 66.992 140.957 66.992C142.512 66.992 143.802 67.5127 144.829 68.554C145.592 69.3607 146.068 70.2773 146.259 71.304H149.757V64H152.155V84.394H149.757V73.394H146.259ZM143.927 72.338C143.927 71.4727 143.641 70.71 143.069 70.05C142.512 69.3753 141.808 69.038 140.957 69.038C140.106 69.038 139.395 69.3753 138.823 70.05C138.266 70.71 137.987 71.4727 137.987 72.338C137.987 73.2327 138.266 74.01 138.823 74.67C139.38 75.33 140.092 75.66 140.957 75.66C141.808 75.66 142.512 75.33 143.069 74.67C143.641 74.01 143.927 73.2327 143.927 72.338ZM170.025 71.084C170.025 72.536 169.445 73.7607 168.287 74.758C167.143 75.7407 165.713 76.232 163.997 76.232C162.207 76.232 160.763 75.7407 159.663 74.758C158.563 73.7607 158.013 72.536 158.013 71.084C158.013 69.6907 158.563 68.488 159.663 67.476C160.763 66.4493 162.207 65.936 163.997 65.936C165.713 65.936 167.143 66.4493 168.287 67.476C169.445 68.488 170.025 69.6907 170.025 71.084ZM167.583 71.084C167.583 70.2627 167.245 69.5513 166.571 68.95C165.896 68.334 165.038 68.026 163.997 68.026C162.911 68.026 162.046 68.334 161.401 68.95C160.77 69.5513 160.455 70.2627 160.455 71.084C160.455 71.964 160.77 72.6973 161.401 73.284C162.046 73.856 162.911 74.142 163.997 74.142C165.038 74.142 165.896 73.856 166.571 73.284C167.245 72.712 167.583 71.9787 167.583 71.084ZM173.655 81.952H154.339V79.862H159.069V76.188H161.489V79.862H166.483V76.188H168.925V79.862H173.655V81.952Z" fill="#979EA1"/>
<path d="M39.8663 39.172L44.3323 43.352L42.6383 44.848L38.5023 40.866C37.1823 42.3033 35.525 43.6967 33.5303 45.046L31.9463 43.528C36.1117 40.6093 38.539 38.0207 39.2283 35.762H33.2443V33.716H42.1323C41.8683 35.5933 41.113 37.412 39.8663 39.172ZM48.5783 47.092H46.1803V39.832H42.2423V37.742H46.1803V32H48.5783V47.092ZM48.7103 52.944H37.3803V45.684H39.7783V50.876H48.7103V52.944ZM61.08 35.74H56.592C56.064 35.74 55.536 35.6667 55.008 35.52C54.48 35.3587 53.952 35.124 53.424 34.816L54.128 33.1C54.8027 33.3493 55.3087 33.5107 55.646 33.584C55.998 33.6573 56.3867 33.694 56.812 33.694H61.08V35.74ZM63.61 38.71H57.56C56.9 38.8713 56.4307 39.0913 56.152 39.37C55.624 39.8687 55.36 40.4333 55.36 41.064C55.36 41.7093 55.558 42.2227 55.954 42.604C56.3647 42.9707 56.8707 43.154 57.472 43.154C58.088 43.154 58.6013 42.9707 59.012 42.604C59.4227 42.2227 59.628 41.7093 59.628 41.064C59.628 40.712 59.4593 40.338 59.122 39.942L60.97 38.776C61.3367 39.1573 61.6007 39.524 61.762 39.876C61.938 40.228 62.026 40.624 62.026 41.064C62.026 42.296 61.5933 43.2933 60.728 44.056C60.156 44.5693 59.496 44.914 58.748 45.09V46.366C59.232 46.3513 59.7673 46.3367 60.354 46.322C61.674 46.278 63.0453 46.1167 64.468 45.838V47.906C63.1627 48.1847 61.8427 48.346 60.508 48.39C59.188 48.434 58.022 48.456 57.01 48.456H51.004V46.388H56.35V45.112C55.5433 44.9507 54.8393 44.5987 54.238 44.056C53.3727 43.2933 52.94 42.296 52.94 41.064C52.94 40.4187 53.1453 39.8027 53.556 39.216C53.6733 39.04 53.8053 38.8713 53.952 38.71H51.378V36.708H63.61V38.71ZM70.804 42.098H67.328V52.394H64.93V32H67.328V40.03H70.804V42.098ZM88.2479 35.388H84.2439C82.9239 35.388 81.7066 35.0727 80.5919 34.442L81.3179 32.726C82.6673 33.122 83.7453 33.32 84.5519 33.32H88.2479V35.388ZM90.7119 38.292H85.1239C84.2879 38.4533 83.6793 38.7393 83.2979 39.15C82.7406 39.766 82.4619 40.4187 82.4619 41.108C82.4619 41.7973 82.6819 42.34 83.1219 42.736C83.5619 43.1173 84.0973 43.308 84.7279 43.308C85.2706 43.308 85.7546 43.1173 86.1799 42.736C86.6199 42.3547 86.8399 41.8193 86.8399 41.13C86.8399 40.5873 86.5539 40.096 85.9819 39.656L87.6979 38.468C88.7099 39.304 89.2159 40.1767 89.2159 41.086C89.2159 42.3473 88.7686 43.3813 87.8739 44.188C86.9793 44.98 85.9379 45.376 84.7499 45.376C83.4153 45.376 82.3006 44.9727 81.4059 44.166C80.5113 43.3447 80.0639 42.318 80.0639 41.086C80.0639 40.1033 80.4453 39.172 81.2079 38.292H78.6999V36.312H90.7119V38.292ZM97.7519 40.756H94.3639V47.642H91.9659V32H94.3639V38.578H97.7519V40.756ZM94.6059 52.944H83.5179V46.476H85.9159V50.876H94.6059V52.944ZM120.771 41.196H116.503V42.78H124.885V44.87H105.569V42.78H114.039V41.196H109.727V32.792H120.639V34.86H112.125V35.982H120.485V38.006H112.125V39.128H120.771V41.196ZM109.771 49.424C109.771 48.28 110.277 47.3193 111.289 46.542C112.301 45.7647 113.606 45.376 115.205 45.376C116.833 45.376 118.153 45.7647 119.165 46.542C120.177 47.3193 120.683 48.28 120.683 49.424C120.683 50.568 120.17 51.5287 119.143 52.306C118.131 53.0833 116.818 53.472 115.205 53.472C113.606 53.472 112.301 53.0833 111.289 52.306C110.277 51.5287 109.771 50.568 109.771 49.424ZM112.213 49.424C112.213 49.9667 112.47 50.4287 112.983 50.81C113.496 51.206 114.237 51.404 115.205 51.404C116.188 51.404 116.936 51.206 117.449 50.81C117.977 50.4287 118.241 49.9667 118.241 49.424C118.241 48.8813 117.977 48.4193 117.449 48.038C116.936 47.642 116.188 47.444 115.205 47.444C114.237 47.444 113.496 47.642 112.983 48.038C112.47 48.4193 112.213 48.8813 112.213 49.424Z" fill="#3E8FF3"/>
</svg>
