<svg width="321" height="57" viewBox="0 0 321 57" fill="none" xmlns="http://www.w3.org/2000/svg">
<path d="M4.24606 4.73C4.24606 3.52734 4.73739 2.486 5.72006 1.606C6.70272 0.711335 8.01539 0.264002 9.65806 0.264002C11.3154 0.264002 12.6354 0.711335 13.6181 1.606C14.6154 2.486 15.1141 3.52734 15.1141 4.73C15.1141 5.93267 14.6227 6.974 13.6401 7.854C12.9067 8.49934 11.9901 8.91 10.8901 9.086V10.582H19.3161V12.672H5.66598e-05V10.582H8.42606V9.108C7.34072 8.94667 6.43872 8.536 5.72006 7.876C4.73739 6.98134 4.24606 5.93267 4.24606 4.73ZM6.68806 4.73C6.68806 5.36067 6.94472 5.918 7.45806 6.402C7.97139 6.87133 8.70472 7.106 9.65806 7.106C10.6261 7.106 11.3667 6.87133 11.8801 6.402C12.4081 5.918 12.6721 5.36067 12.6721 4.73C12.6721 4.09934 12.4081 3.54934 11.8801 3.08C11.3667 2.596 10.6261 2.354 9.65806 2.354C8.70472 2.354 7.97139 2.596 7.45806 3.08C6.94472 3.54934 6.68806 4.09934 6.68806 4.73ZM15.2241 21.362H12.7821V16.258H3.91606V14.19H15.2241V21.362ZM30.8747 1.32C30.8453 2.00934 30.6987 2.684 30.4347 3.344L36.5067 7.788L35.0547 9.438L29.3347 5.236C28.1613 6.776 26.328 8.27934 23.8347 9.746L22.3167 8.14C26.2033 5.79334 28.242 3.52734 28.4327 1.342V0.440002H30.8747V1.32ZM39.1247 12.694H31.1387V16.874H28.6747V12.694H19.8087V10.604H39.1247V12.694ZM35.6047 20.944H24.0107V14.696H26.4527V18.876H35.6047V20.944ZM51.3872 10.802H40.7832V1.386H43.2032V8.734H51.3872V10.802ZM53.7192 12.43V1.3113e-06H56.1172V12.43H53.7192ZM55.8972 21.054H45.1832V13.09H55.8972V21.054ZM53.5212 19.008V15.136H47.5592V19.008H53.5212ZM70.0567 2.442C70.0567 4.48067 69.976 6.204 69.8147 7.612C69.6533 9.00534 69.4407 10.3107 69.1767 11.528H66.8007C67.006 10.4867 67.1967 9.35734 67.3727 8.14C67.5633 6.908 67.6587 5.698 67.6587 4.51H60.0247V2.442H70.0567ZM78.3287 9.944H74.8527V20.394H72.4547V1.3113e-06H74.8527V7.876H78.3287V9.944ZM62.7307 13.64V7.876H65.1287V13.64C65.8913 13.6253 66.8153 13.6033 67.9007 13.574C69.2353 13.53 70.614 13.3687 72.0367 13.09V15.158C70.7313 15.4367 69.404 15.598 68.0547 15.642C66.72 15.686 65.5467 15.708 64.5347 15.708H58.5287V13.64H62.7307ZM85.2989 9.416C86.0762 9.416 86.7289 9.152 87.2569 8.624C87.7995 8.08134 88.0709 7.42867 88.0709 6.666C88.0709 5.90334 87.7995 5.258 87.2569 4.73C86.7289 4.18734 86.0762 3.916 85.2989 3.916C84.5362 3.916 83.8909 4.18734 83.3629 4.73C82.8349 5.258 82.5709 5.90334 82.5709 6.666C82.5709 7.42867 82.8349 8.08134 83.3629 8.624C83.8909 9.152 84.5362 9.416 85.2989 9.416ZM80.1509 6.666C80.1509 5.33134 80.6422 4.202 81.6249 3.278C82.6075 2.33934 83.8322 1.87 85.2989 1.87C86.7802 1.87 88.0122 2.33934 88.9949 3.278C89.9922 4.202 90.4909 5.33134 90.4909 6.666C90.4909 8.00067 89.9922 9.13734 88.9949 10.076C88.0122 11 86.7802 11.462 85.2989 11.462C83.8322 11.462 82.6075 11 81.6249 10.076C80.6422 9.13734 80.1509 8.00067 80.1509 6.666ZM95.7489 20.394H93.3509V1.3113e-06H95.7489V20.394ZM92.7569 15.158C91.4515 15.4367 90.1022 15.598 88.7089 15.642C87.3155 15.686 86.1129 15.708 85.1009 15.708H78.8529V13.64H85.1669C86.0175 13.64 87.1395 13.618 88.5329 13.574C89.9262 13.53 91.3342 13.3687 92.7569 13.09V15.158ZM120.411 9.196H116.143V10.78H124.525V12.87H105.209V10.78H113.679V9.196H109.367V0.792002H120.279V2.86H111.765V3.982H120.125V6.006H111.765V7.128H120.411V9.196ZM109.411 17.424C109.411 16.28 109.917 15.3193 110.929 14.542C111.941 13.7647 113.246 13.376 114.845 13.376C116.473 13.376 117.793 13.7647 118.805 14.542C119.817 15.3193 120.323 16.28 120.323 17.424C120.323 18.568 119.81 19.5287 118.783 20.306C117.771 21.0833 116.458 21.472 114.845 21.472C113.246 21.472 111.941 21.0833 110.929 20.306C109.917 19.5287 109.411 18.568 109.411 17.424ZM111.853 17.424C111.853 17.9667 112.11 18.4287 112.623 18.81C113.136 19.206 113.877 19.404 114.845 19.404C115.828 19.404 116.576 19.206 117.089 18.81C117.617 18.4287 117.881 17.9667 117.881 17.424C117.881 16.8813 117.617 16.4193 117.089 16.038C116.576 15.642 115.828 15.444 114.845 15.444C113.877 15.444 113.136 15.642 112.623 16.038C112.11 16.4193 111.853 16.8813 111.853 17.424ZM135.314 3.74H130.826C130.298 3.74 129.77 3.66667 129.242 3.52C128.714 3.35867 128.186 3.124 127.658 2.816L128.362 1.1C129.036 1.34934 129.542 1.51067 129.88 1.584C130.232 1.65734 130.62 1.694 131.046 1.694H135.314V3.74ZM137.844 6.71H131.794C131.134 6.87134 130.664 7.09134 130.386 7.37C129.858 7.86867 129.594 8.43334 129.594 9.064C129.594 9.70934 129.792 10.2227 130.188 10.604C130.598 10.9707 131.104 11.154 131.706 11.154C132.322 11.154 132.835 10.9707 133.246 10.604C133.656 10.2227 133.862 9.70934 133.862 9.064C133.862 8.712 133.693 8.338 133.356 7.942L135.204 6.776C135.57 7.15734 135.834 7.524 135.996 7.876C136.172 8.228 136.26 8.624 136.26 9.064C136.26 10.296 135.827 11.2933 134.962 12.056C134.39 12.5693 133.73 12.914 132.982 13.09V14.366C133.466 14.3513 134.001 14.3367 134.588 14.322C135.908 14.278 137.279 14.1167 138.702 13.838V15.906C137.396 16.1847 136.076 16.346 134.742 16.39C133.422 16.434 132.256 16.456 131.244 16.456H125.238V14.388H130.584V13.112C129.777 12.9507 129.073 12.5987 128.472 12.056C127.606 11.2933 127.174 10.296 127.174 9.064C127.174 8.41867 127.379 7.80267 127.79 7.216C127.907 7.04 128.039 6.87134 128.186 6.71H125.612V4.708H137.844V6.71ZM145.038 10.098H141.562V20.394H139.164V1.3113e-06H141.562V8.03H145.038V10.098ZM160.61 8.8H149.478V3.674H157.75V2.552H149.412V0.572002H160.192V5.632H151.92V6.82H160.61V8.8ZM145.342 9.9H164.658V11.946H145.342V9.9ZM160.676 21.164H149.5V15.972H157.728V15.004H149.368V13.002H160.17V17.952H151.942V19.14H160.676V21.164ZM180.508 8.778L185.172 13.09L183.478 14.564L179.188 10.538C177.868 12.078 176.196 13.53 174.172 14.894L172.588 13.376C176.739 10.472 179.181 7.59 179.914 4.73H173.798V2.684H182.774C182.51 4.84 181.755 6.87134 180.508 8.778ZM188.912 20.394H186.514V1.3113e-06H188.912V20.394ZM206.394 0.880002C206.394 2.31733 206.32 3.81333 206.174 5.368C206.056 6.6 205.917 7.72934 205.756 8.756H210.42V10.846H191.104V8.756H203.336C203.541 7.612 203.688 6.50467 203.776 5.434C203.878 4.12867 203.93 3.3 203.93 2.948H194.8V0.880002H206.394ZM203.798 19.008V14.96H197.704V19.008H203.798ZM195.262 12.914H206.218V21.054H195.262V12.914ZM223.652 8.976C224.444 8.976 225.089 8.712 225.588 8.184C226.101 7.656 226.358 7.01067 226.358 6.248C226.358 5.48534 226.101 4.84 225.588 4.312C225.089 3.784 224.444 3.52 223.652 3.52C222.875 3.52 222.237 3.784 221.738 4.312C221.239 4.84 220.99 5.48534 220.99 6.248C220.99 7.01067 221.239 7.656 221.738 8.184C222.237 8.712 222.875 8.976 223.652 8.976ZM218.57 6.248C218.57 4.91334 219.054 3.784 220.022 2.86C220.99 1.936 222.2 1.474 223.652 1.474C225.119 1.474 226.343 1.936 227.326 2.86C228.001 3.50534 228.441 4.25334 228.646 5.104H232.584V1.3113e-06H234.982V11.836H232.584V7.194H228.69C228.514 8.118 228.059 8.932 227.326 9.636C226.343 10.56 225.119 11.022 223.652 11.022C222.2 11.022 220.99 10.56 220.022 9.636C219.054 8.712 218.57 7.58267 218.57 6.248ZM234.696 21.164H223.982V12.342H226.358V14.762H232.32V12.342H234.696V21.164ZM232.32 19.118V16.786H226.358V19.118H232.32ZM252.588 13.244H248.122V15.862H256.504V17.952H237.188V15.862H245.658V13.244H241.214V6.49H249.728V3.916H241.126V1.892H252.17V8.514H243.656V11.22H252.588V13.244ZM272.374 11.836H261.044V2.222H272.352V4.29H263.508V9.768H272.374V11.836ZM256.996 15.686H276.312V17.776H256.996V15.686ZM294.208 3.828H290.072C288.767 3.828 287.55 3.51267 286.42 2.882L287.168 1.144C288.518 1.54 289.588 1.738 290.38 1.738H294.208V3.828ZM296.54 7.304H290.644C289.896 7.48 289.332 7.766 288.95 8.162C288.276 8.88067 287.938 9.65067 287.938 10.472C287.938 11.2493 288.195 11.8727 288.708 12.342C289.222 12.8113 289.794 13.046 290.424 13.046C291.055 13.046 291.62 12.8113 292.118 12.342C292.617 11.8727 292.866 11.2567 292.866 10.494C292.866 9.89267 292.529 9.306 291.854 8.734L293.636 7.48C294.736 8.30134 295.286 9.29867 295.286 10.472C295.286 11.792 294.81 12.8993 293.856 13.794C292.918 14.674 291.774 15.114 290.424 15.114C289.075 15.114 287.916 14.674 286.948 13.794C285.995 12.8993 285.518 11.792 285.518 10.472C285.518 9.26934 285.973 8.21334 286.882 7.304H284.264V5.28H296.54V7.304ZM303.536 10.186H300.324V20.394H297.904V1.3113e-06H300.324V8.008H303.536V10.186ZM314.454 11.462H305.104V1.694H314.454V3.498H318.436V1.3113e-06H320.812V15.312H318.436V10.076H314.454V11.462ZM314.454 5.566V8.008H318.436V5.566H314.454ZM312.1 9.394V3.762H307.458V9.394H312.1ZM320.944 20.944H309.614V13.684H312.012V18.876H320.944V20.944ZM69.8483 49.344H60.2563V37.574H62.6103V41.644H67.4943V37.574H69.8483V49.344ZM67.4943 47.276V43.69H62.6103V47.276H67.4943ZM78.6703 44.284H75.1943V55.394H72.7963V35H75.1943V42.106H78.6703V44.284ZM94.5378 48.244H90.0718V50.862H98.4538V52.952H79.1378V50.862H87.6078V48.244H83.1638V41.49H91.6778V38.916H83.0758V36.892H94.1198V43.514H85.6058V46.22H94.5378V48.244ZM121.278 44.482H110.366V35.726H112.786V38.234H118.88V35.726H121.278V44.482ZM118.88 42.414V40.258H112.786V42.414H118.88ZM125.524 48.178H117.538V52.248H115.074V48.178H106.208V46.088H125.524V48.178ZM122.004 55.944H110.41V50.004H112.852V53.876H122.004V55.944ZM132.947 40.544L137.809 45.164L136.137 46.572L132.023 42.59C131.099 44.174 129.72 45.6773 127.887 47.1L126.193 45.692C129.273 43.2133 130.893 40.5513 131.055 37.706V36.122H133.431V37.31C133.445 38.4247 133.284 39.5027 132.947 40.544ZM142.825 47.716H140.427V41.688H135.763V39.62H140.427V35H142.825V47.716ZM142.605 56.384H140.207V50.4H131.187V48.332H142.605V56.384ZM154.908 37.948H150.904C149.584 37.948 148.367 37.64 147.252 37.024L147.978 35.352C149.328 35.7333 150.406 35.924 151.212 35.924H154.908V37.948ZM157.372 40.61H151.828C150.992 40.698 150.398 40.918 150.046 41.27C149.46 41.8273 149.166 42.4433 149.166 43.118C149.166 43.6167 149.372 44.0493 149.782 44.416C150.208 44.768 150.743 44.944 151.388 44.944C151.931 44.944 152.408 44.768 152.818 44.416C153.244 44.064 153.456 43.6387 153.456 43.14C153.456 42.6267 153.229 42.216 152.774 41.908L154.424 40.742C155.378 41.402 155.854 42.194 155.854 43.118C155.854 44.1887 155.407 45.098 154.512 45.846C153.618 46.5793 152.584 46.946 151.41 46.946C150.061 46.946 148.946 46.5647 148.066 45.802C147.201 45.0247 146.768 44.13 146.768 43.118C146.768 42.194 147.098 41.358 147.758 40.61H145.36V38.652H157.372V40.61ZM164.412 42.436H161.024V47.012H158.626V35H161.024V40.214H164.412V42.436ZM161.376 56.164H150.09V50.84H158.406V49.74H150.002V47.716H160.804V52.842H152.51V54.14H161.376V56.164ZM183.164 36.892C183.12 37.4933 183.01 38.0727 182.834 38.63L189.082 43.36L187.586 45.01L181.844 40.676C180.7 42.392 178.822 43.9393 176.212 45.318L174.672 43.668C178.632 41.424 180.648 39.136 180.722 36.804V35.77H183.164V36.892ZM191.546 48.816H183.098V55.834H180.634V48.816H172.23V46.726H191.546V48.816ZM204.844 44.064C205.665 44.064 206.318 43.7853 206.802 43.228C207.301 42.6707 207.55 42.0253 207.55 41.292C207.55 40.5587 207.301 39.9133 206.802 39.356C206.318 38.7987 205.665 38.52 204.844 38.52C204.037 38.52 203.392 38.7987 202.908 39.356C202.424 39.9133 202.182 40.5587 202.182 41.292C202.182 42.0253 202.424 42.6707 202.908 43.228C203.392 43.7853 204.037 44.064 204.844 44.064ZM199.762 41.292C199.762 39.9867 200.239 38.8573 201.192 37.904C202.145 36.9507 203.363 36.474 204.844 36.474C206.34 36.474 207.565 36.9507 208.518 37.904C209.486 38.8573 209.97 39.9867 209.97 41.292C209.97 42.5973 209.486 43.7267 208.518 44.68C207.565 45.6333 206.34 46.11 204.844 46.11C203.363 46.11 202.145 45.6333 201.192 44.68C200.239 43.7267 199.762 42.5973 199.762 41.292ZM213.402 47.43V35H215.8V47.43H213.402ZM207.594 48.838C207.565 49.5273 207.44 50.1947 207.22 50.84L209.64 53.48C211.004 52.0867 211.679 50.5027 211.664 48.728V48.024H214.062V48.662C214.062 49.3953 213.967 50.1067 213.776 50.796L217.824 54.778L216.218 56.208L212.852 52.908C212.823 52.9667 212.793 53.018 212.764 53.062C211.884 54.426 210.784 55.5187 209.464 56.34L206.186 52.886C205.379 54.0593 204.221 55.174 202.71 56.23L201.148 54.712C203.832 52.952 205.181 50.9573 205.196 48.728V48.024H207.594V48.838ZM228.925 44.394C228.735 45.4353 228.258 46.352 227.495 47.144C226.469 48.1853 225.178 48.706 223.623 48.706C222.054 48.706 220.763 48.1853 219.751 47.144C218.739 46.1027 218.233 44.834 218.233 43.338C218.233 41.8713 218.739 40.6173 219.751 39.576C220.763 38.52 222.054 37.992 223.623 37.992C225.178 37.992 226.469 38.5127 227.495 39.554C228.258 40.3607 228.735 41.2773 228.925 42.304H232.423V35H234.821V55.394H232.423V44.394H228.925ZM226.593 43.338C226.593 42.4727 226.307 41.71 225.735 41.05C225.178 40.3753 224.474 40.038 223.623 40.038C222.773 40.038 222.061 40.3753 221.489 41.05C220.932 41.71 220.653 42.4727 220.653 43.338C220.653 44.2327 220.932 45.01 221.489 45.67C222.047 46.33 222.758 46.66 223.623 46.66C224.474 46.66 225.178 46.33 225.735 45.67C226.307 45.01 226.593 44.2327 226.593 43.338ZM252.691 42.084C252.691 43.536 252.112 44.7607 250.953 45.758C249.809 46.7407 248.379 47.232 246.663 47.232C244.874 47.232 243.429 46.7407 242.329 45.758C241.229 44.7607 240.679 43.536 240.679 42.084C240.679 40.6907 241.229 39.488 242.329 38.476C243.429 37.4493 244.874 36.936 246.663 36.936C248.379 36.936 249.809 37.4493 250.953 38.476C252.112 39.488 252.691 40.6907 252.691 42.084ZM250.249 42.084C250.249 41.2627 249.912 40.5513 249.237 39.95C248.562 39.334 247.704 39.026 246.663 39.026C245.578 39.026 244.712 39.334 244.067 39.95C243.436 40.5513 243.121 41.2627 243.121 42.084C243.121 42.964 243.436 43.6973 244.067 44.284C244.712 44.856 245.578 45.142 246.663 45.142C247.704 45.142 248.562 44.856 249.237 44.284C249.912 43.712 250.249 42.9787 250.249 42.084ZM256.321 52.952H237.005V50.862H241.735V47.188H244.155V50.862H249.149V47.188H251.591V50.862H256.321V52.952ZM261.302 36.452L261.17 49.146H258.926L258.816 36.452H261.302ZM261.588 54.514H258.574V51.588H261.588V54.514Z" fill="#979EA1"/>
</svg>
