<svg width="138" height="22" viewBox="0 0 138 22" fill="none" xmlns="http://www.w3.org/2000/svg">
<path d="M11 8.338C11 9.89267 10.4573 11.1907 9.37198 12.232C8.30131 13.2587 7.00331 13.7647 5.47798 13.75C3.93798 13.7353 2.63998 13.222 1.58398 12.21C0.527981 11.1833 -1.9528e-05 9.89267 -1.9528e-05 8.338C-1.9528e-05 6.81267 0.527981 5.52934 1.58398 4.488C2.63998 3.44667 3.93798 2.926 5.47798 2.926C7.00331 2.926 8.30131 3.44667 9.37198 4.488C10.4573 5.52934 11 6.81267 11 8.338ZM8.57998 8.338C8.57998 7.38467 8.27198 6.58534 7.65598 5.94C7.05465 5.28 6.32865 4.95734 5.47798 4.972C4.61265 4.98667 3.88665 5.31667 3.29998 5.962C2.71331 6.59267 2.41998 7.38467 2.41998 8.338C2.41998 9.32067 2.71331 10.1273 3.29998 10.758C3.88665 11.3887 4.61265 11.704 5.47798 11.704C6.32865 11.704 7.05465 11.3887 7.65598 10.758C8.27198 10.1273 8.57998 9.32067 8.57998 8.338ZM15.994 20.394H13.596V1.3113e-06H15.994V20.394ZM27.3154 2.662C26.9634 4.83267 26.2667 6.84934 25.2254 8.712L28.8994 13.266L27.1174 14.476L23.9934 10.626C22.8934 12.122 21.5367 13.508 19.9234 14.784L18.2514 13.288C21.5661 10.7067 23.6267 7.84667 24.4334 4.708H19.2414V2.662H27.3154ZM36.1154 20.394H33.7834V1.3113e-06H36.1154V20.394ZM26.9194 6.996H29.7574V0.440002H32.0674V19.074H29.7574V9.064H26.9194V6.996ZM57.304 14.014H46.722V2.662H55.83V4.73H49.12V11.946H57.304V14.014ZM65.026 9.284H61.55V20.394H59.152V1.3113e-06H61.55V7.106H65.026V9.284ZM82.8312 8.646H80.0372V10.648C80.3892 10.648 80.7485 10.6407 81.1152 10.626C81.9512 10.6113 82.9925 10.4793 84.2392 10.23V12.298C83.0219 12.5473 81.9805 12.6867 81.1152 12.716C80.2499 12.7307 79.3772 12.738 78.4972 12.738H72.9752V10.67H77.6832V8.646H74.2072V1.276H82.8312V3.344H76.5612V6.578H82.8312V8.646ZM87.0552 5.258H88.9252V1.3113e-06H91.2352V13.442H88.9252V7.326H87.0552V13.068H84.7452V0.440002H87.0552V5.258ZM81.5772 14.52C81.5625 15.092 81.4599 15.6567 81.2692 16.214L83.6892 18.568C85.1265 17.2333 85.8305 15.8473 85.8012 14.41V13.904H88.1992V14.3C88.1992 14.8867 88.1112 15.466 87.9352 16.038L92.1152 19.712L90.5092 21.208L86.9672 18.04C86.1752 19.184 85.0165 20.2913 83.4912 21.362L80.2132 18.172C79.4065 19.228 78.2625 20.2473 76.7812 21.23L75.1752 19.69C77.8445 18.0327 79.1792 16.1847 79.1792 14.146V13.904H81.5772V14.52ZM104.357 9.394C104.166 10.4353 103.69 11.352 102.927 12.144C101.9 13.1853 100.61 13.706 99.0552 13.706C97.4858 13.706 96.1952 13.1853 95.1832 12.144C94.1712 11.1027 93.6652 9.834 93.6652 8.338C93.6652 6.87134 94.1712 5.61734 95.1832 4.576C96.1952 3.52 97.4858 2.992 99.0552 2.992C100.61 2.992 101.9 3.51267 102.927 4.554C103.69 5.36067 104.166 6.27734 104.357 7.304H107.855V1.3113e-06H110.253V20.394H107.855V9.394H104.357ZM102.025 8.338C102.025 7.47267 101.739 6.71 101.167 6.05C100.61 5.37534 99.9058 5.038 99.0552 5.038C98.2045 5.038 97.4932 5.37534 96.9212 6.05C96.3638 6.71 96.0852 7.47267 96.0852 8.338C96.0852 9.23267 96.3638 10.01 96.9212 10.67C97.4785 11.33 98.1898 11.66 99.0552 11.66C99.9058 11.66 100.61 11.33 101.167 10.67C101.739 10.01 102.025 9.23267 102.025 8.338ZM128.123 7.084C128.123 8.536 127.543 9.76067 126.385 10.758C125.241 11.7407 123.811 12.232 122.095 12.232C120.305 12.232 118.861 11.7407 117.761 10.758C116.661 9.76067 116.111 8.536 116.111 7.084C116.111 5.69067 116.661 4.488 117.761 3.476C118.861 2.44934 120.305 1.936 122.095 1.936C123.811 1.936 125.241 2.44934 126.385 3.476C127.543 4.488 128.123 5.69067 128.123 7.084ZM125.681 7.084C125.681 6.26267 125.343 5.55134 124.669 4.95C123.994 4.334 123.136 4.026 122.095 4.026C121.009 4.026 120.144 4.334 119.499 4.95C118.868 5.55134 118.553 6.26267 118.553 7.084C118.553 7.964 118.868 8.69734 119.499 9.284C120.144 9.856 121.009 10.142 122.095 10.142C123.136 10.142 123.994 9.856 124.669 9.284C125.343 8.712 125.681 7.97867 125.681 7.084ZM131.753 17.952H112.437V15.862H117.167V12.188H119.587V15.862H124.581V12.188H127.023V15.862H131.753V17.952ZM136.733 1.452L136.601 14.146H134.357L134.247 1.452H136.733ZM137.019 19.514H134.005V16.588H137.019V19.514Z" fill="#979EA1"/>
</svg>
