<svg width="111" height="55" viewBox="0 0 111 55" fill="none" xmlns="http://www.w3.org/2000/svg">
<path d="M79.1878 37.5606H63.0962V24.0611H66.7993V34.3961H79.1878V37.5606ZM90.9704 32.8139H85.7861V39.6815H82.1167V22.3779H85.7861V29.4811H90.9704V32.8139ZM86.3247 54.7632H69.0548V45.9094H81.78V43.7549H68.9202V40.5904H85.4494V49.0402H72.7579V51.5987H86.3247V54.7632Z" fill="#3E8FF3"/>
<path d="M54.0739 40.8934H36.7366V25.4077H40.5071V37.7289H54.0739V40.8934ZM30.4077 46.3807H59.9652V49.5788H30.4077V46.3807Z" fill="#3E8FF3"/>
<path d="M16.4956 35.1368C16.4956 36.0345 16.3722 36.8761 16.1253 37.6616H21.7473V33.1842H16.2936C16.4283 33.8126 16.4956 34.4635 16.4956 35.1368ZM14.2738 40.8261C14.2289 40.871 14.1952 40.9158 14.1728 40.9607C12.6018 42.5542 10.6268 43.3509 8.24781 43.3509C5.84641 43.3509 3.87142 42.5542 2.32285 40.9607C0.774284 39.3673 0 37.4259 0 35.1368C0 32.8925 0.774284 30.9736 2.32285 29.3801C3.87142 27.7642 5.84641 26.9563 8.24781 26.9563C10.6268 26.9563 12.6018 27.753 14.1728 29.3465C14.3748 29.5709 14.5655 29.7953 14.7451 30.0198H21.7473V22.3779H25.3831V53.5849H21.7473V40.8261H14.2738ZM12.7925 35.1368C12.7925 33.8126 12.3549 32.6456 11.4796 31.6356C10.6268 30.6033 9.54951 30.0871 8.24781 30.0871C6.94612 30.0871 5.85763 30.6033 4.98235 31.6356C4.12952 32.6456 3.7031 33.8126 3.7031 35.1368C3.7031 36.5058 4.12952 37.6953 4.98235 38.7052C5.83519 39.7151 6.92367 40.2201 8.24781 40.2201C9.54951 40.2201 10.6268 39.7151 11.4796 38.7052C12.3549 37.6953 12.7925 36.5058 12.7925 35.1368Z" fill="#3E8FF3"/>
<path d="M90.9705 21.669V0.0205929C93.0937 0.0205922 101.056 -1.06182 101.056 12.4684C106.364 11.9272 111.495 16.9785 110.08 21.669H90.9705Z" fill="#FFD86D"/>
</svg>
