<svg width="79" height="76" viewBox="0 0 79 76" fill="none" xmlns="http://www.w3.org/2000/svg">
<path d="M58 41.8085V19.3006C60.272 19.3006 70.4317 18.0477 70.4317 32.1152C76.1116 31.5525 79.9623 36.9318 78.4476 41.8085H58Z" fill="#FFD86D"/>
<path d="M16.6711 35.0256C23.2069 45.3746 32.9351 53.414 44.3141 57.9707L51.9741 48.7424C52.9142 47.6098 54.4174 47.1218 55.8036 47.4576C60.2343 48.4786 64.9498 48.8149 69.7093 48.3729C71.8203 48.1769 73.7079 49.7437 73.904 51.8547L75.1479 65.2502C75.344 67.3612 73.7772 69.2488 71.6661 69.4449C35.625 72.7919 3.70345 46.2954 0.356443 10.2543C0.1604 8.14323 1.72721 6.25562 3.83824 6.05957L17.2721 4.81202C19.3831 4.61598 21.2707 6.18279 21.4668 8.29382C21.9123 13.0916 23.1077 17.6262 24.9271 21.7932C25.4741 23.0974 25.306 24.6228 24.3311 25.7973L16.6711 35.0256Z" fill="#4291F1"/>
</svg>
